<?xml version="1.0" encoding="utf-8"?>
<svg xmlns="http://www.w3.org/2000/svg" viewBox="0 0 32 32" width="64" height="64">
  <path d="M28 3C25.4355 3 23.387767 2.9507415 21.730469 3.5605469C20.901819 3.8654496 20.158167 4.3896219 19.679688 5.1601562C19.201207 5.9306906 19 6.880375 19 8C19 8.5582074 18.872789 8.7262679 18.695312 8.8867188C18.517836 9.0471695 18.192494 9.1854728 17.787109 9.2734375C16.173224 9.6242822 14.868555 10.413704 14.076172 11.669922C13.283788 12.92614 13 14.525 13 16.5L13 21C13 21.56503 12.56503 22 12 22C11.43497 22 11 21.56503 11 21L11 11L4 11L4 21C4 25.406438 7.593562 29 12 29C16.406438 29 20 25.406438 20 21L20 18C20 16.311019 20.02075 14.62906 20.416016 13.392578C20.811279 12.156096 21.407815 11.366691 22.992188 10.970703C24.096811 10.694547 25.006593 10.239928 25.494141 9.3867188C25.981689 8.5335097 26 7.5975877 26 6.375C26 5.9917763 26.094178 5.8129679 26.234375 5.6464844C26.374572 5.4800008 26.598251 5.3330162 26.867188 5.2265625C27.405059 5.013655 28 5 28 5L28 3 z M 24.378906 5.2851562C24.236864 5.6468939 24 5.9406626 24 6.375C24 7.5274123 23.893311 8.1539903 23.755859 8.3945312C23.618407 8.6350723 23.40319 8.8054527 22.507812 9.0292969C21.527675 9.2742662 20.737867 9.7227665 20.107422 10.289062C20.642598 9.7618878 21 8.9518726 21 8C21 7.119625 21.158793 6.5693094 21.378906 6.2148438C21.59902 5.8603781 21.891649 5.6345504 22.421875 5.4394531C22.793926 5.3025565 23.799248 5.3505631 24.378906 5.2851562 z M 19.890625 10.480469C19.232068 11.13988 18.77874 11.941783 18.509766 12.783203C17.971279 14.467721 18 16.313981 18 18L18 21C18 24.325562 15.325562 27 12 27C8.674438 27 6 24.325562 6 21L6 13L9 13L9 21C9 22.64497 10.35503 24 12 24C13.64497 24 15 22.64497 15 21L15 16.5C15 14.725 15.278712 13.51136 15.767578 12.736328C16.256445 11.961296 16.951776 11.500718 18.212891 11.226562C18.737932 11.112633 19.346302 10.915049 19.890625 10.480469 z" fill="#84D5F7" />
</svg>